# xmcd
#
# Track frame offsets: 
#        150
#        18513
#        43217
#        60541
#        85232
#        104430
#        123987
#        143204
#
# Disc length: 2203 seconds
#
# Revision: 0
# Processed by: cddbd v1.5.2PL0 Copyright (c) Steve Scherf et al.
# Submitted via: ExactAudioCopy v0.99pb4
#
DISCID=6b089908
DTITLE=Philip Bailey - Continuation
DYEAR=1983
DGENRE=R&B
TTITLE0=I Know
TTITLE1=Trapped
TTITLE2=It's Our Time
TTITLE3=Desire
TTITLE4=I'm Waitin' For Your Love
TTITLE5=Vaya (Go With Love)
TTITLE6=The Good Guy's Supposed To Get The Girls
TTITLE7=Your Boyfriend's Back
EXTD=
EXTT0=
EXTT1=
EXTT2=
EXTT3=
EXTT4=
EXTT5=
EXTT6=
EXTT7=
PLAYORDER=
